<svg id="svg" version="1.1" xmlns="http://www.w3.org/2000/svg" xmlns:xlink="http://www.w3.org/1999/xlink" width="400" height="457.8088578088578" viewBox="0, 0, 400,457.8088578088578"><g id="svgg"><path id="path0" d="M122.024 0.292 C 120.241 0.454,118.800 1.513,118.800 2.661 C 118.800 2.958,118.620 3.200,118.400 3.200 C 118.180 3.200,118.000 4.111,118.000 5.224 C 118.000 6.471,117.847 7.152,117.600 7.000 C 117.334 6.835,117.200 45.729,117.200 123.376 L 117.200 240.000 62.600 240.000 C 26.467 240.000,8.000 240.135,8.000 240.400 C 8.000 240.620,7.649 240.800,7.220 240.800 C 6.791 240.800,6.296 241.050,6.120 241.355 C 5.944 241.661,5.440 241.978,5.000 242.059 C 4.531 242.147,4.146 242.586,4.070 243.121 C 3.970 243.819,3.758 243.977,3.170 243.790 C 2.546 243.593,2.400 243.742,2.400 244.573 C 2.400 245.138,2.220 245.600,2.000 245.600 C 1.780 245.600,1.600 245.985,1.600 246.456 C 1.600 246.927,1.336 247.512,1.014 247.756 C -0.060 248.570,-0.317 261.825,0.748 261.489 C 1.136 261.367,3.200 263.465,3.200 263.982 C 3.200 264.212,3.359 264.400,3.552 264.400 C 3.746 264.400,5.760 266.245,8.027 268.500 C 10.295 270.755,12.296 272.555,12.475 272.500 C 12.654 272.445,12.755 272.542,12.700 272.715 C 12.571 273.122,14.637 275.200,15.169 275.200 C 15.392 275.200,15.471 275.470,15.345 275.800 C 15.218 276.130,15.322 276.400,15.575 276.400 C 16.149 276.400,18.236 278.455,18.100 278.885 C 18.045 279.058,18.188 279.200,18.418 279.200 C 18.960 279.200,21.031 281.273,20.900 281.685 C 20.845 281.858,20.988 282.000,21.218 282.000 C 21.760 282.000,23.831 284.073,23.700 284.485 C 23.645 284.658,23.788 284.800,24.018 284.800 C 24.560 284.800,26.631 286.873,26.500 287.285 C 26.445 287.458,26.542 287.555,26.715 287.500 C 27.144 287.364,29.428 289.683,29.290 290.115 C 29.230 290.304,29.342 290.359,29.540 290.237 C 29.737 290.115,30.235 290.462,30.645 291.008 C 31.054 291.553,31.612 292.000,31.882 292.000 C 32.156 292.000,32.272 292.267,32.145 292.600 C 32.018 292.930,32.122 293.200,32.375 293.200 C 32.951 293.200,34.800 295.016,34.800 295.582 C 34.800 295.812,34.979 296.000,35.197 296.000 C 35.841 296.000,37.600 297.695,37.600 298.315 C 37.600 298.658,37.839 298.794,38.200 298.655 C 38.536 298.526,38.800 298.645,38.800 298.924 C 38.800 299.199,39.160 299.683,39.600 300.000 C 40.040 300.317,40.400 300.807,40.400 301.088 C 40.400 301.370,40.588 301.600,40.818 301.600 C 41.361 301.600,43.200 303.439,43.200 303.982 C 43.200 304.212,43.379 304.400,43.597 304.400 C 44.218 304.400,46.000 306.085,46.000 306.672 C 46.000 306.962,46.179 307.200,46.397 307.200 C 47.018 307.200,48.800 308.885,48.800 309.472 C 48.800 309.762,48.979 310.000,49.197 310.000 C 49.841 310.000,51.600 311.695,51.600 312.315 C 51.600 312.658,51.839 312.794,52.200 312.655 C 52.544 312.523,52.800 312.647,52.800 312.945 C 52.800 313.231,53.236 313.698,53.768 313.983 C 54.324 314.281,54.646 314.735,54.525 315.051 C 54.409 315.353,54.512 315.600,54.754 315.600 C 55.444 315.600,57.200 317.279,57.200 317.939 C 57.200 318.266,57.323 318.411,57.472 318.261 C 57.844 317.889,60.000 320.005,60.000 320.742 C 60.000 321.067,60.123 321.211,60.272 321.061 C 60.624 320.709,62.800 322.786,62.800 323.475 C 62.800 323.764,63.036 324.000,63.325 324.000 C 64.014 324.000,66.091 326.176,65.739 326.528 C 65.589 326.677,65.678 326.800,65.937 326.800 C 66.684 326.800,68.804 328.869,68.523 329.324 C 68.368 329.575,68.529 329.636,68.934 329.481 C 69.333 329.328,69.600 329.423,69.600 329.716 C 69.600 329.987,69.960 330.432,70.400 330.707 C 70.840 330.982,71.200 331.475,71.200 331.803 C 71.200 332.132,71.379 332.400,71.597 332.400 C 72.218 332.400,74.000 334.085,74.000 334.672 C 74.000 334.962,74.270 335.200,74.600 335.200 C 74.930 335.200,75.200 335.350,75.200 335.532 C 75.200 335.715,75.636 336.098,76.168 336.383 C 76.724 336.681,77.046 337.135,76.925 337.451 C 76.809 337.753,76.912 338.000,77.154 338.000 C 77.831 338.000,79.600 339.674,79.600 340.315 C 79.600 340.658,79.839 340.794,80.200 340.655 C 80.533 340.528,80.800 340.644,80.800 340.916 C 80.800 341.187,81.160 341.632,81.600 341.907 C 82.040 342.182,82.400 342.695,82.400 343.046 C 82.400 343.450,82.621 343.601,83.000 343.455 C 83.333 343.328,83.600 343.444,83.600 343.716 C 83.600 343.987,83.960 344.432,84.400 344.707 C 84.840 344.982,85.200 345.475,85.200 345.803 C 85.200 346.132,85.335 346.358,85.500 346.306 C 85.968 346.159,88.000 348.082,88.000 348.672 C 88.000 348.962,88.135 349.158,88.300 349.106 C 88.768 348.959,90.800 350.882,90.800 351.472 C 90.800 351.762,90.935 351.958,91.100 351.906 C 91.568 351.759,93.600 353.682,93.600 354.272 C 93.600 354.562,93.758 354.755,93.951 354.700 C 94.145 354.645,94.909 355.230,95.651 356.000 C 96.392 356.770,97.134 357.355,97.299 357.300 C 97.465 357.245,97.600 357.374,97.600 357.587 C 97.600 357.799,98.230 358.603,99.000 359.373 C 99.770 360.143,100.400 360.966,100.400 361.201 C 100.400 361.741,141.693 403.031,142.100 402.898 C 142.265 402.844,142.355 402.942,142.300 403.115 C 142.172 403.517,144.470 405.832,144.870 405.705 C 145.036 405.652,145.068 405.877,144.943 406.205 C 144.809 406.553,144.942 406.800,145.262 406.800 C 145.564 406.800,146.146 407.247,146.555 407.792 C 146.965 408.338,147.489 408.669,147.718 408.527 C 147.976 408.368,148.038 408.524,147.881 408.934 C 147.740 409.300,147.806 409.600,148.026 409.600 C 148.577 409.600,150.775 411.892,150.494 412.173 C 150.369 412.298,150.479 412.400,150.738 412.400 C 151.325 412.400,156.237 417.234,156.100 417.677 C 156.045 417.854,156.142 417.955,156.315 417.900 C 156.726 417.770,159.030 420.074,158.900 420.485 C 158.845 420.658,158.993 420.800,159.229 420.800 C 159.695 420.800,160.800 421.785,160.800 422.200 C 160.800 422.534,161.866 423.600,162.200 423.600 C 162.534 423.600,163.600 424.666,163.600 425.000 C 163.600 425.334,164.666 426.400,165.000 426.400 C 165.334 426.400,166.400 427.466,166.400 427.800 C 166.400 428.134,167.466 429.200,167.800 429.200 C 168.134 429.200,169.200 430.266,169.200 430.600 C 169.200 430.934,170.266 432.000,170.600 432.000 C 170.934 432.000,172.000 433.066,172.000 433.400 C 172.000 433.734,173.066 434.800,173.400 434.800 C 173.734 434.800,174.800 435.866,174.800 436.200 C 174.800 436.534,175.866 437.600,176.200 437.600 C 176.610 437.600,177.600 438.702,177.600 439.159 C 177.600 439.388,177.872 439.471,178.205 439.343 C 178.637 439.177,178.739 439.294,178.562 439.755 C 178.421 440.123,178.517 440.400,178.786 440.400 C 179.369 440.400,180.400 441.396,180.400 441.959 C 180.400 442.188,180.672 442.271,181.005 442.143 C 181.437 441.977,181.539 442.094,181.362 442.555 C 181.221 442.923,181.317 443.200,181.586 443.200 C 182.169 443.200,183.200 444.196,183.200 444.759 C 183.200 444.988,183.472 445.071,183.805 444.943 C 184.237 444.777,184.339 444.894,184.162 445.355 C 184.021 445.723,184.117 446.000,184.386 446.000 C 184.969 446.000,186.000 446.996,186.000 447.559 C 186.000 447.788,186.301 447.859,186.669 447.718 C 187.177 447.523,187.277 447.623,187.082 448.131 C 186.941 448.499,187.012 448.800,187.241 448.800 C 187.785 448.800,188.800 449.823,188.800 450.371 C 188.800 450.607,189.007 450.800,189.260 450.800 C 189.762 450.800,194.507 455.547,195.147 456.690 C 195.759 457.784,204.259 457.753,204.874 456.654 C 205.468 455.593,209.710 451.381,210.070 451.495 C 210.236 451.548,210.268 451.321,210.141 450.991 C 209.977 450.563,210.096 450.462,210.555 450.638 C 210.923 450.779,211.200 450.683,211.200 450.414 C 211.200 449.831,212.196 448.800,212.759 448.800 C 212.988 448.800,213.059 448.499,212.918 448.131 C 212.723 447.623,212.823 447.523,213.331 447.718 C 213.699 447.859,214.000 447.788,214.000 447.559 C 214.000 446.996,215.031 446.000,215.614 446.000 C 215.883 446.000,215.979 445.723,215.838 445.355 C 215.661 444.894,215.763 444.777,216.195 444.943 C 216.528 445.071,216.800 444.988,216.800 444.759 C 216.800 444.196,217.831 443.200,218.414 443.200 C 218.683 443.200,218.779 442.923,218.638 442.555 C 218.461 442.094,218.563 441.977,218.995 442.143 C 219.328 442.271,219.600 442.188,219.600 441.959 C 219.600 441.396,220.631 440.400,221.214 440.400 C 221.483 440.400,221.579 440.123,221.438 439.755 C 221.261 439.294,221.363 439.177,221.795 439.343 C 222.128 439.471,222.400 439.388,222.400 439.159 C 222.400 438.702,223.390 437.600,223.800 437.600 C 224.134 437.600,225.200 436.534,225.200 436.200 C 225.200 435.866,226.266 434.800,226.600 434.800 C 226.934 434.800,228.000 433.734,228.000 433.400 C 228.000 433.066,229.066 432.000,229.400 432.000 C 229.734 432.000,230.800 430.934,230.800 430.600 C 230.800 430.266,231.866 429.200,232.200 429.200 C 232.534 429.200,233.600 428.134,233.600 427.800 C 233.600 427.466,234.666 426.400,235.000 426.400 C 235.334 426.400,236.400 425.334,236.400 425.000 C 236.400 424.666,237.466 423.600,237.800 423.600 C 238.134 423.600,239.200 422.534,239.200 422.200 C 239.200 421.785,240.305 420.800,240.771 420.800 C 241.007 420.800,241.155 420.656,241.100 420.479 C 240.962 420.036,248.675 412.400,249.261 412.400 C 249.521 412.400,249.631 412.298,249.506 412.173 C 249.225 411.892,251.423 409.600,251.974 409.600 C 252.194 409.600,252.260 409.300,252.119 408.934 C 251.962 408.524,252.024 408.368,252.282 408.527 C 252.511 408.669,253.035 408.338,253.445 407.792 C 253.854 407.247,254.436 406.800,254.738 406.800 C 255.058 406.800,255.191 406.553,255.057 406.205 C 254.932 405.877,254.964 405.652,255.130 405.705 C 255.530 405.832,257.828 403.517,257.700 403.115 C 257.645 402.942,257.735 402.844,257.900 402.898 C 258.307 403.031,299.600 361.741,299.600 361.201 C 299.600 360.966,300.230 360.143,301.000 359.373 C 301.770 358.603,302.400 357.799,302.400 357.587 C 302.400 357.374,302.535 357.245,302.701 357.300 C 302.866 357.355,303.608 356.770,304.349 356.000 C 305.091 355.230,305.855 354.645,306.049 354.700 C 306.242 354.755,306.400 354.562,306.400 354.272 C 306.400 353.682,308.432 351.759,308.900 351.906 C 309.065 351.958,309.200 351.762,309.200 351.472 C 309.200 350.882,311.232 348.959,311.700 349.106 C 311.865 349.158,312.000 348.962,312.000 348.672 C 312.000 348.082,314.032 346.159,314.500 346.306 C 314.665 346.358,314.800 346.132,314.800 345.803 C 314.800 345.475,315.160 344.982,315.600 344.707 C 316.040 344.432,316.400 343.987,316.400 343.716 C 316.400 343.444,316.667 343.328,317.000 343.455 C 317.379 343.601,317.600 343.450,317.600 343.046 C 317.600 342.695,317.960 342.182,318.400 341.907 C 318.840 341.632,319.200 341.187,319.200 340.916 C 319.200 340.644,319.467 340.528,319.800 340.655 C 320.161 340.794,320.400 340.658,320.400 340.315 C 320.400 339.674,322.169 338.000,322.846 338.000 C 323.088 338.000,323.191 337.753,323.075 337.451 C 322.954 337.135,323.276 336.681,323.832 336.383 C 324.364 336.098,324.800 335.715,324.800 335.532 C 324.800 335.350,325.070 335.200,325.400 335.200 C 325.730 335.200,326.000 334.962,326.000 334.672 C 326.000 334.085,327.782 332.400,328.403 332.400 C 328.621 332.400,328.800 332.132,328.800 331.803 C 328.800 331.475,329.160 330.982,329.600 330.707 C 330.040 330.432,330.400 329.987,330.400 329.716 C 330.400 329.419,330.677 329.324,331.100 329.476 C 331.485 329.614,331.662 329.576,331.494 329.391 C 331.107 328.965,333.151 326.800,333.942 326.800 C 334.267 326.800,334.411 326.677,334.261 326.528 C 333.909 326.176,335.986 324.000,336.675 324.000 C 336.964 324.000,337.200 323.764,337.200 323.475 C 337.200 322.733,339.386 320.725,339.792 321.094 C 339.977 321.262,340.016 321.204,339.880 320.963 C 339.587 320.450,342.124 317.858,342.526 318.260 C 342.677 318.410,342.800 318.266,342.800 317.939 C 342.800 317.279,344.556 315.600,345.246 315.600 C 345.488 315.600,345.591 315.353,345.475 315.051 C 345.354 314.735,345.676 314.281,346.232 313.983 C 346.764 313.698,347.200 313.231,347.200 312.945 C 347.200 312.647,347.456 312.523,347.800 312.655 C 348.161 312.794,348.400 312.658,348.400 312.315 C 348.400 311.695,350.159 310.000,350.803 310.000 C 351.021 310.000,351.200 309.762,351.200 309.472 C 351.200 308.885,352.982 307.200,353.603 307.200 C 353.821 307.200,354.000 306.962,354.000 306.672 C 354.000 306.085,355.782 304.400,356.403 304.400 C 356.621 304.400,356.800 304.212,356.800 303.982 C 356.800 303.439,358.639 301.600,359.182 301.600 C 359.412 301.600,359.600 301.332,359.600 301.003 C 359.600 300.675,359.960 300.182,360.400 299.907 C 360.840 299.632,361.200 299.187,361.200 298.916 C 361.200 298.644,361.467 298.528,361.800 298.655 C 362.161 298.794,362.400 298.658,362.400 298.315 C 362.400 297.695,364.159 296.000,364.803 296.000 C 365.021 296.000,365.200 295.812,365.200 295.582 C 365.200 295.016,367.049 293.200,367.625 293.200 C 367.878 293.200,367.982 292.930,367.855 292.600 C 367.728 292.267,367.844 292.000,368.118 292.000 C 368.388 292.000,368.946 291.553,369.355 291.008 C 369.765 290.462,370.263 290.115,370.460 290.237 C 370.658 290.359,370.770 290.304,370.710 290.115 C 370.572 289.683,372.856 287.364,373.285 287.500 C 373.458 287.555,373.555 287.458,373.500 287.285 C 373.369 286.873,375.440 284.800,375.982 284.800 C 376.212 284.800,376.355 284.658,376.300 284.485 C 376.169 284.073,378.240 282.000,378.782 282.000 C 379.012 282.000,379.155 281.858,379.100 281.685 C 378.969 281.273,381.040 279.200,381.582 279.200 C 381.812 279.200,381.955 279.058,381.900 278.885 C 381.764 278.455,383.851 276.400,384.425 276.400 C 384.678 276.400,384.782 276.130,384.655 275.800 C 384.529 275.470,384.608 275.200,384.831 275.200 C 385.363 275.200,387.429 273.122,387.300 272.715 C 387.245 272.542,387.346 272.445,387.525 272.500 C 387.704 272.555,389.705 270.755,391.973 268.500 C 394.240 266.245,396.254 264.400,396.448 264.400 C 396.641 264.400,396.800 264.212,396.800 263.982 C 396.800 263.465,398.864 261.367,399.252 261.489 C 400.317 261.825,400.060 248.570,398.986 247.756 C 398.664 247.512,398.400 246.927,398.400 246.456 C 398.400 245.985,398.220 245.600,398.000 245.600 C 397.780 245.600,397.600 245.138,397.600 244.573 C 397.600 243.742,397.454 243.593,396.830 243.790 C 396.242 243.977,396.030 243.819,395.930 243.121 C 395.854 242.586,395.469 242.147,395.000 242.059 C 394.560 241.978,394.056 241.661,393.880 241.355 C 393.704 241.050,393.209 240.800,392.780 240.800 C 392.351 240.800,392.000 240.620,392.000 240.400 C 392.000 240.135,373.533 240.000,337.400 240.000 L 282.800 240.000 282.800 123.376 C 282.800 45.729,282.666 6.835,282.400 7.000 C 282.153 7.152,282.000 6.471,282.000 5.224 C 282.000 4.111,281.820 3.200,281.600 3.200 C 281.380 3.200,281.200 2.958,281.200 2.661 C 281.200 2.365,280.825 1.690,280.366 1.161 L 279.533 0.200 201.666 0.166 C 158.840 0.147,123.001 0.204,122.024 0.292 " stroke="none" fill="#34c42c" fill-rule="evenodd"></path><path id="path1" d="" stroke="none" fill="#38c42c" fill-rule="evenodd"></path></g></svg>