<svg id="svg" xmlns="http://www.w3.org/2000/svg" xmlns:xlink="http://www.w3.org/1999/xlink" width="400" height="400" viewBox="0, 0, 400,400" version="1.1"><g id="svgg"><path id="path0" d="M290.820 44.129 C 284.593 44.498,278.707 46.072,272.442 49.045 C 270.882 49.785,269.370 50.393,269.080 50.396 C 268.791 50.399,268.115 50.746,267.578 51.168 C 267.041 51.591,265.371 52.755,263.867 53.757 C 262.363 54.759,260.992 55.817,260.820 56.109 C 260.649 56.402,260.259 56.641,259.955 56.641 C 259.330 56.641,252.561 63.243,250.143 66.211 C 247.215 69.806,242.793 77.632,241.426 81.641 C 237.046 94.483,236.330 106.340,239.281 117.188 C 239.836 119.229,240.389 121.403,240.509 122.019 C 240.852 123.779,123.872 240.772,122.070 240.471 C 121.426 240.363,119.229 239.826,117.188 239.277 C 106.849 236.497,93.477 237.103,83.594 240.802 C 82.627 241.164,81.309 241.596,80.664 241.763 C 78.256 242.386,69.505 247.459,66.211 250.143 C 63.243 252.561,56.641 259.330,56.641 259.955 C 56.641 260.259,56.399 260.649,56.103 260.820 C 55.545 261.144,51.953 266.125,51.953 266.575 C 51.953 266.715,51.602 267.207,51.172 267.668 C 50.742 268.129,50.391 268.754,50.391 269.056 C 50.391 269.359,49.774 270.906,49.020 272.494 C 48.267 274.082,47.379 276.218,47.048 277.241 C 46.716 278.264,46.283 279.453,46.085 279.883 C 45.187 281.832,44.415 286.606,44.137 291.929 C 43.580 302.590,44.403 304.894,48.755 304.871 C 51.781 304.854,52.052 304.644,62.500 294.222 C 67.334 289.400,72.300 284.658,73.535 283.685 C 74.771 282.712,75.781 281.777,75.781 281.606 C 75.781 281.105,83.802 277.412,86.296 276.766 C 95.991 274.254,106.619 279.236,116.834 291.081 C 118.747 293.299,120.312 295.295,120.312 295.517 C 120.312 295.739,120.830 296.918,121.463 298.138 C 125.785 306.468,124.354 318.812,118.346 325.018 C 117.816 325.565,112.911 330.627,107.445 336.267 C 95.758 348.327,95.541 348.607,95.522 351.650 C 95.494 356.014,98.004 356.870,108.938 356.224 C 116.256 355.793,121.302 354.500,127.910 351.364 C 129.491 350.614,131.021 349.998,131.310 349.995 C 131.599 349.992,132.275 349.644,132.813 349.222 C 133.350 348.800,135.020 347.635,136.523 346.634 C 138.027 345.632,139.398 344.573,139.570 344.281 C 139.742 343.989,140.131 343.750,140.435 343.750 C 141.061 343.750,147.830 337.148,150.248 334.180 C 153.176 330.585,157.598 322.758,158.965 318.750 C 163.347 305.902,164.062 294.026,161.105 283.203 C 160.548 281.162,160.009 278.965,159.908 278.320 C 159.622 276.503,276.627 159.535,278.372 159.894 C 278.988 160.020,281.162 160.571,283.203 161.118 C 293.565 163.893,306.919 163.285,316.797 159.589 C 317.764 159.227,319.082 158.794,319.727 158.628 C 322.135 158.005,330.885 152.931,334.180 150.248 C 337.148 147.830,343.750 141.061,343.750 140.435 C 343.750 140.131,343.992 139.742,344.288 139.570 C 344.846 139.246,348.438 134.266,348.438 133.816 C 348.438 133.676,348.789 133.184,349.219 132.723 C 349.648 132.261,350.000 131.637,350.000 131.334 C 350.000 131.032,350.617 129.485,351.370 127.897 C 352.124 126.309,353.012 124.172,353.343 123.149 C 353.674 122.126,354.108 120.938,354.306 120.508 C 355.204 118.559,355.976 113.785,356.254 108.461 C 356.810 97.800,355.988 95.496,351.635 95.520 C 348.610 95.537,348.339 95.746,337.891 106.169 C 333.057 110.991,328.091 115.732,326.855 116.705 C 325.620 117.678,324.609 118.614,324.609 118.784 C 324.609 119.286,316.589 122.978,314.095 123.624 C 306.735 125.532,298.054 122.897,290.695 116.523 C 287.350 113.626,280.086 105.652,280.081 104.872 C 280.079 104.651,279.560 103.472,278.927 102.252 C 274.605 93.922,276.037 81.579,282.045 75.372 C 282.575 74.825,287.480 69.763,292.945 64.124 C 304.617 52.080,304.849 51.780,304.869 48.763 C 304.897 44.324,302.253 43.452,290.820 44.129 " stroke="none" fill="#8c8c8c" fill-rule="evenodd"></path><path id="path1" d="" stroke="none" fill="#908c8c" fill-rule="evenodd"></path></g></svg>