<svg id="svg" version="1.1" xmlns="http://www.w3.org/2000/svg" xmlns:xlink="http://www.w3.org/1999/xlink" width="400" height="400" viewBox="0, 0, 400,400"><g id="svgg"><path id="path0" d="M124.023 23.924 C 121.063 24.691,118.567 27.074,118.205 29.478 C 118.074 30.345,117.556 33.840,117.053 37.244 C 116.053 44.010,116.189 43.758,112.976 44.774 C 111.841 45.134,110.820 45.577,110.707 45.760 C 110.593 45.944,110.091 46.094,109.590 46.094 C 109.089 46.094,107.435 46.709,105.913 47.461 C 104.392 48.213,103.027 48.828,102.881 48.828 C 102.442 48.828,97.911 51.061,97.079 51.687 C 96.373 52.218,96.182 52.170,94.874 51.134 C 94.087 50.510,93.267 50.000,93.052 50.000 C 92.837 50.000,92.561 49.736,92.437 49.414 C 92.313 49.092,91.952 48.828,91.633 48.828 C 91.315 48.828,90.914 48.596,90.742 48.311 C 89.750 46.670,84.280 43.029,82.422 42.773 C 79.450 42.365,74.219 43.520,74.219 44.584 C 74.219 44.763,73.047 46.011,71.616 47.357 C 70.184 48.703,68.646 50.226,68.198 50.741 C 67.211 51.874,65.709 53.366,64.204 54.707 C 63.589 55.256,62.193 56.682,61.102 57.877 C 60.011 59.073,58.661 60.350,58.102 60.716 C 54.278 63.222,55.052 70.726,59.690 76.115 C 60.920 77.545,62.350 79.417,62.866 80.275 C 63.382 81.134,64.258 82.215,64.813 82.678 L 65.820 83.520 64.160 86.810 C 63.247 88.619,62.500 90.324,62.500 90.598 C 62.500 90.873,62.048 91.997,61.496 93.097 C 60.943 94.197,60.250 95.980,59.955 97.060 C 59.111 100.145,58.520 102.139,58.418 102.251 C 58.366 102.307,55.178 102.798,51.333 103.341 C 40.942 104.810,40.951 104.807,39.124 107.280 C 37.175 109.918,37.109 110.472,37.112 124.216 C 37.115 142.869,37.500 143.495,49.975 145.121 C 52.432 145.441,55.458 145.703,56.700 145.703 C 59.134 145.703,59.766 146.205,59.766 148.138 C 59.766 148.647,59.911 149.229,60.089 149.434 C 60.267 149.638,61.072 151.563,61.878 153.711 C 63.500 158.037,64.019 159.178,65.482 161.632 L 66.477 163.304 65.230 164.562 C 64.545 165.254,63.312 166.787,62.490 167.969 C 61.669 169.150,60.195 170.996,59.214 172.070 C 54.214 177.550,54.470 183.242,59.961 188.707 C 61.680 190.417,63.476 192.208,63.953 192.686 C 79.552 208.314,80.296 208.462,92.310 198.330 C 93.129 197.639,94.096 196.925,94.458 196.742 C 94.821 196.560,95.583 195.883,96.153 195.239 L 97.188 194.067 99.383 195.471 C 100.590 196.243,101.732 196.875,101.921 196.875 C 102.109 196.875,103.346 197.412,104.668 198.068 C 105.991 198.724,108.766 199.782,110.836 200.419 C 112.905 201.056,114.644 201.623,114.699 201.678 C 114.755 201.734,115.162 204.411,115.605 207.628 C 116.862 216.764,117.162 218.062,118.724 221.088 C 118.889 221.407,120.061 222.198,121.328 222.846 L 123.633 224.023 137.166 224.023 C 149.507 224.023,150.766 223.963,151.455 223.340 C 151.870 222.964,152.460 222.652,152.765 222.648 C 154.873 222.615,157.030 218.790,157.427 214.383 C 157.755 210.732,158.898 202.281,159.082 202.139 C 159.136 202.097,160.234 201.753,161.523 201.374 C 167.042 199.754,169.639 198.787,173.092 197.069 C 175.108 196.066,176.964 195.074,177.215 194.866 C 177.657 194.500,179.297 195.184,179.297 195.734 C 179.297 195.972,183.850 199.609,184.147 199.609 C 184.236 199.609,184.719 199.953,185.221 200.374 C 185.722 200.794,186.939 201.814,187.923 202.641 C 190.349 204.677,193.223 205.340,196.742 204.676 L 199.265 204.200 208.368 195.166 C 213.374 190.198,217.790 185.518,218.180 184.766 C 219.040 183.112,219.175 177.692,218.394 176.172 C 217.343 174.123,215.410 171.486,214.960 171.485 C 214.701 171.485,214.183 170.825,213.809 170.020 C 213.434 169.214,212.195 167.514,211.055 166.241 C 209.081 164.037,209.011 163.885,209.570 163.032 C 209.892 162.540,210.156 161.880,210.156 161.565 C 210.156 161.251,210.401 160.749,210.700 160.449 C 211.572 159.578,213.157 156.214,213.883 153.694 C 214.252 152.414,214.877 150.664,215.272 149.805 C 215.667 148.945,216.215 147.544,216.491 146.690 L 216.992 145.138 221.680 144.463 C 224.258 144.092,227.249 143.780,228.326 143.769 C 231.230 143.741,235.032 141.799,235.805 139.949 C 236.125 139.184,236.624 138.320,236.915 138.029 C 237.779 137.166,237.952 134.032,237.820 121.680 L 237.695 109.961 236.447 107.617 C 234.677 104.292,232.834 103.510,223.951 102.314 L 217.237 101.410 215.681 97.287 C 214.824 95.019,213.735 92.021,213.259 90.625 C 212.784 89.229,212.089 87.646,211.716 87.109 C 210.704 85.652,209.428 82.865,209.712 82.733 C 210.039 82.581,212.869 79.080,214.068 77.344 C 214.587 76.592,215.479 75.502,216.050 74.922 C 219.350 71.570,219.868 62.714,216.874 60.809 C 216.594 60.631,214.175 58.258,211.497 55.536 C 205.813 49.755,206.795 50.735,203.031 47.091 C 197.593 41.826,192.559 40.993,188.357 44.661 C 187.563 45.353,186.431 46.164,185.840 46.463 C 185.249 46.762,184.766 47.228,184.766 47.498 C 184.766 47.768,183.800 48.542,182.621 49.217 C 181.441 49.892,180.209 50.825,179.883 51.290 C 179.347 52.055,179.206 52.084,178.415 51.585 C 177.470 50.990,176.371 50.442,174.219 49.493 C 173.467 49.161,171.885 48.415,170.703 47.835 C 169.521 47.255,167.324 46.373,165.820 45.877 C 158.659 43.511,159.002 43.814,158.987 39.844 C 158.980 38.017,158.309 33.062,157.548 29.222 C 157.223 27.582,154.221 24.802,151.986 24.071 C 149.692 23.321,126.812 23.200,124.023 23.924 M144.336 78.698 C 150.667 79.602,160.134 83.285,163.005 85.960 C 163.453 86.377,163.970 86.719,164.153 86.719 C 165.057 86.719,173.828 95.029,173.828 95.886 C 173.828 96.039,174.596 97.071,175.535 98.180 C 184.174 108.381,186.146 128.021,179.935 141.992 C 179.649 142.637,179.193 143.730,178.923 144.421 C 178.653 145.112,178.187 145.880,177.888 146.129 C 177.589 146.377,177.343 146.866,177.342 147.216 C 177.341 147.565,176.550 148.723,175.584 149.788 C 174.618 150.854,173.828 151.912,173.828 152.140 C 173.828 152.765,167.296 159.036,164.844 160.764 C 163.662 161.597,162.607 162.390,162.500 162.525 C 161.920 163.257,154.350 166.869,151.532 167.760 C 137.959 172.047,120.921 169.257,110.842 161.095 C 105.622 156.869,104.462 155.800,102.337 153.255 C 101.052 151.716,100.000 150.274,100.000 150.052 C 100.000 149.830,99.759 149.508,99.463 149.336 C 98.834 148.969,96.484 145.230,96.484 144.595 C 96.484 144.176,94.506 139.539,93.769 138.229 C 93.292 137.383,92.343 132.677,91.770 128.323 C 90.604 119.458,93.935 105.855,98.898 99.219 C 110.976 83.069,126.348 76.127,144.336 78.698 " stroke="none" fill="#747474" fill-rule="evenodd"></path><path id="path1" d="M293.255 170.314 C 291.136 170.951,287.142 176.658,286.557 179.884 C 286.057 182.637,283.723 184.499,281.956 183.553 C 281.490 183.304,279.819 183.268,277.425 183.454 C 275.339 183.617,272.490 183.737,271.094 183.720 C 269.680 183.703,268.437 183.875,268.290 184.108 C 267.902 184.720,266.016 183.771,266.016 182.963 C 266.016 182.607,265.576 181.909,265.039 181.411 C 264.502 180.913,264.063 180.234,264.063 179.901 C 264.063 179.569,263.907 179.297,263.717 179.297 C 263.528 179.297,263.269 178.989,263.143 178.613 C 262.816 177.641,261.997 176.420,261.426 176.055 C 261.157 175.883,260.936 175.531,260.934 175.274 C 260.929 174.607,258.728 172.953,257.102 172.394 C 254.983 171.666,252.734 171.362,252.734 171.804 C 252.734 172.018,252.394 172.103,251.977 171.995 C 251.561 171.886,250.819 172.078,250.328 172.422 C 249.837 172.766,249.142 173.047,248.783 173.047 C 248.424 173.047,248.036 173.294,247.920 173.596 C 247.804 173.898,247.126 174.264,246.413 174.410 C 244.523 174.797,242.969 175.518,242.969 176.010 C 242.969 176.245,242.046 176.647,240.918 176.902 C 239.715 177.174,238.495 177.757,237.967 178.311 C 237.402 178.904,236.410 179.354,235.300 179.520 C 234.327 179.666,233.445 180.011,233.339 180.287 C 233.233 180.563,232.720 180.896,232.198 181.027 C 231.677 181.158,231.250 181.425,231.250 181.620 C 231.250 181.816,231.030 182.208,230.762 182.492 C 228.903 184.457,227.671 190.718,228.901 191.948 C 229.119 192.166,229.297 192.748,229.297 193.242 C 229.297 193.736,229.450 194.141,229.638 194.141 C 229.825 194.141,230.091 194.844,230.228 195.703 C 230.366 196.563,230.664 197.266,230.890 197.266 C 231.125 197.266,231.196 197.602,231.055 198.047 C 230.918 198.477,230.950 198.828,231.126 198.828 C 232.217 198.828,231.356 202.241,229.874 203.793 C 229.019 204.687,227.969 205.869,227.539 206.419 C 227.109 206.969,226.469 207.514,226.116 207.629 C 225.763 207.744,225.254 208.371,224.985 209.021 C 224.715 209.672,223.911 210.649,223.197 211.194 C 222.484 211.738,221.915 212.299,221.934 212.439 C 222.122 213.858,220.682 214.052,217.175 213.079 C 216.000 212.754,214.616 212.394,214.100 212.280 C 213.583 212.166,212.819 211.890,212.403 211.667 C 210.549 210.674,205.940 210.810,204.942 211.887 C 204.431 212.439,203.812 212.891,203.568 212.891 C 203.325 212.891,203.125 213.135,203.125 213.435 C 203.125 213.734,202.862 214.080,202.540 214.203 C 201.819 214.480,199.224 220.573,198.690 223.242 C 198.647 223.457,198.221 224.644,197.743 225.879 C 195.638 231.324,195.294 232.274,195.144 233.058 C 195.057 233.516,194.727 234.658,194.411 235.597 C 193.485 238.352,194.315 242.086,196.113 243.252 C 196.854 243.734,197.646 244.262,197.873 244.427 C 198.799 245.100,199.838 245.721,200.391 245.929 C 200.713 246.051,201.240 246.308,201.563 246.502 C 202.566 247.103,205.654 248.697,205.859 248.719 C 206.985 248.838,208.987 250.611,209.004 251.503 C 209.146 258.948,209.335 263.298,209.557 264.266 C 209.809 265.364,209.725 265.483,208.346 265.981 C 206.784 266.546,205.859 267.264,205.859 267.911 C 205.859 268.285,203.210 269.376,202.659 269.228 C 202.511 269.188,201.868 269.636,201.231 270.222 C 200.595 270.809,199.530 271.698,198.865 272.198 C 198.200 272.697,197.543 273.576,197.405 274.151 C 197.268 274.725,196.858 275.811,196.496 276.563 C 195.516 278.597,196.182 284.850,197.305 284.155 C 197.463 284.058,197.709 284.506,197.851 285.153 C 197.993 285.799,198.238 286.328,198.395 286.328 C 198.552 286.328,198.906 287.207,199.181 288.281 C 199.456 289.355,199.841 290.234,200.036 290.234 C 200.231 290.234,200.391 290.416,200.391 290.639 C 200.391 290.861,200.695 291.508,201.068 292.076 C 201.440 292.645,201.753 293.298,201.762 293.528 C 201.820 294.901,202.497 296.414,203.333 297.042 C 203.885 297.457,204.297 298.163,204.297 298.696 C 204.297 300.484,206.124 302.610,208.086 303.104 C 209.067 303.351,210.549 303.899,211.378 304.322 C 212.720 305.007,213.024 305.033,214.157 304.562 C 214.857 304.270,215.649 304.106,215.918 304.197 C 216.187 304.288,216.406 304.172,216.406 303.939 C 216.406 303.706,216.747 303.516,217.164 303.516 C 217.581 303.516,218.031 303.340,218.164 303.125 C 218.297 302.910,219.022 302.734,219.775 302.734 C 221.178 302.734,222.430 302.235,223.360 301.305 C 224.596 300.069,228.498 301.615,229.125 303.590 C 229.399 304.452,230.215 305.469,230.633 305.469 C 230.754 305.469,231.354 305.994,231.968 306.636 C 232.581 307.277,233.186 307.699,233.313 307.573 C 233.569 307.316,234.203 307.789,236.164 309.702 C 237.585 311.087,237.721 311.771,237.075 314.258 C 236.852 315.117,236.598 316.348,236.511 316.992 C 236.265 318.806,235.306 322.428,234.842 323.294 C 234.205 324.485,235.241 328.028,236.844 330.137 C 237.887 331.510,243.797 334.176,249.260 335.740 C 250.249 336.023,251.766 336.615,252.630 337.056 C 253.493 337.497,254.293 337.765,254.406 337.651 C 254.519 337.538,255.363 337.829,256.282 338.298 C 259.272 339.823,263.836 339.641,265.680 337.923 C 266.160 337.476,266.860 337.109,267.235 337.109 C 267.791 337.109,268.344 336.290,268.552 335.156 C 268.724 334.219,269.729 331.718,270.121 331.250 C 270.391 330.928,270.991 329.961,271.453 329.102 C 271.916 328.242,272.685 326.836,273.163 325.977 L 274.031 324.414 276.762 324.539 C 282.046 324.782,286.221 324.668,287.814 324.239 C 289.580 323.764,291.406 324.035,291.406 324.774 C 291.406 325.662,292.898 328.321,293.866 329.159 C 294.399 329.620,295.051 330.654,295.316 331.456 C 295.962 333.414,298.059 335.938,299.040 335.938 C 299.341 335.938,300.515 336.343,301.649 336.838 C 304.116 337.915,307.755 337.557,308.925 336.123 C 309.280 335.688,309.897 335.397,310.295 335.476 C 310.694 335.555,311.213 335.428,311.448 335.193 C 311.683 334.958,312.182 334.766,312.558 334.766 C 312.934 334.766,313.715 334.326,314.295 333.789 C 314.875 333.251,316.071 332.623,316.952 332.393 C 317.833 332.163,318.730 331.768,318.945 331.515 C 319.160 331.262,319.512 331.048,319.727 331.040 C 320.098 331.025,321.182 330.555,324.885 328.799 C 325.788 328.371,326.496 327.912,326.458 327.780 C 326.386 327.529,327.726 325.340,328.161 325.000 C 328.492 324.741,329.005 323.091,329.132 321.875 C 329.188 321.338,329.336 320.301,329.460 319.570 C 329.584 318.840,329.533 318.049,329.347 317.812 C 329.161 317.576,328.888 316.719,328.742 315.907 C 328.596 315.095,328.309 314.535,328.105 314.661 C 327.901 314.787,327.734 314.440,327.734 313.890 C 327.734 313.340,327.603 312.890,327.441 312.890 C 327.280 312.889,327.103 312.248,327.046 311.464 C 326.990 310.680,326.595 309.473,326.167 308.782 C 325.236 307.275,325.210 307.031,325.976 307.031 C 326.298 307.031,327.286 306.328,328.172 305.469 C 329.057 304.609,329.928 303.906,330.107 303.906 C 330.286 303.906,330.704 303.335,331.036 302.637 C 331.741 301.155,333.332 299.219,333.846 299.219 C 334.042 299.219,334.461 298.847,334.777 298.393 C 336.208 296.338,337.413 294.965,337.612 295.164 C 337.894 295.446,340.493 296.117,342.003 296.297 C 342.654 296.374,343.972 296.769,344.933 297.174 C 347.663 298.326,354.048 298.053,353.284 296.817 C 353.171 296.634,353.298 296.484,353.567 296.484 C 354.377 296.484,357.031 293.265,357.031 292.281 C 357.031 291.779,357.303 290.842,357.635 290.200 C 357.967 289.558,358.655 287.853,359.164 286.411 C 359.673 284.969,360.636 282.295,361.304 280.469 C 361.972 278.643,362.610 276.729,362.721 276.217 C 362.833 275.705,363.158 274.826,363.443 274.264 C 363.728 273.702,363.927 272.671,363.885 271.973 C 363.843 271.274,363.778 270.025,363.740 269.195 C 363.680 267.869,361.226 264.313,360.675 264.753 C 360.424 264.953,358.594 264.367,358.594 264.087 C 358.594 263.932,357.671 263.383,356.543 262.868 C 354.376 261.877,352.236 260.548,352.018 260.059 C 351.947 259.897,351.551 259.766,351.139 259.766 C 350.345 259.766,350.295 259.487,350.226 254.688 C 350.209 253.506,350.082 252.363,349.943 252.148 C 349.699 251.770,349.744 251.225,350.244 248.535 C 350.373 247.837,350.328 247.266,350.142 247.266 C 349.956 247.266,349.827 246.387,349.854 245.313 C 349.919 242.678,349.940 242.578,350.407 242.578 C 350.631 242.578,351.027 242.405,351.286 242.193 C 352.856 240.913,354.281 239.948,355.566 239.294 C 356.372 238.884,357.031 238.420,357.031 238.263 C 357.031 238.106,357.315 238.002,357.661 238.032 C 358.007 238.062,358.490 237.734,358.735 237.305 C 358.980 236.875,359.268 236.436,359.375 236.328 C 359.826 235.877,361.347 232.311,361.166 232.130 C 361.058 232.021,361.225 231.436,361.539 230.829 C 362.488 228.993,361.781 225.000,360.506 225.000 C 360.362 225.000,360.124 224.363,359.978 223.585 C 359.688 222.043,359.164 220.973,358.105 219.770 C 357.729 219.343,357.422 218.587,357.422 218.090 C 357.422 217.594,357.246 217.188,357.031 217.188 C 356.816 217.188,356.641 216.839,356.641 216.412 C 356.641 215.986,356.133 214.799,355.512 213.775 C 354.892 212.752,354.252 211.479,354.091 210.947 C 353.375 208.586,350.929 206.162,348.438 205.343 C 345.903 204.510,344.748 204.362,343.979 204.774 C 343.192 205.195,341.255 205.534,339.564 205.547 C 339.061 205.550,338.599 205.863,338.463 206.292 C 338.254 206.951,336.035 207.364,334.266 207.074 C 334.099 207.046,333.855 207.306,333.722 207.650 C 333.482 208.276,330.469 205.487,330.469 204.638 C 330.469 204.450,330.224 204.297,329.925 204.297 C 329.625 204.297,329.279 204.033,329.156 203.711 C 329.032 203.389,328.662 203.125,328.333 203.125 C 328.004 203.125,327.734 202.987,327.734 202.818 C 327.734 202.156,324.152 198.764,323.046 198.379 C 322.402 198.154,321.875 197.812,321.875 197.618 C 321.875 197.424,321.599 197.266,321.263 197.266 C 320.861 197.266,320.722 197.031,320.858 196.582 C 320.972 196.206,321.256 194.682,321.488 193.195 C 321.721 191.708,322.022 190.313,322.157 190.094 C 323.000 188.730,323.049 181.654,322.221 180.717 C 320.190 178.417,318.477 176.932,317.665 176.768 C 317.295 176.693,316.465 176.418,315.820 176.156 C 313.324 175.143,308.361 173.411,307.617 173.293 C 307.188 173.225,306.096 172.791,305.191 172.327 C 304.287 171.864,303.269 171.484,302.930 171.484 C 302.590 171.484,301.624 171.133,300.781 170.703 C 299.158 169.875,295.367 169.679,293.255 170.314 M284.766 216.039 C 314.726 220.857,328.375 255.332,309.649 278.886 C 300.463 290.439,283.961 296.342,270.898 292.747 C 269.609 292.392,268.176 292.050,267.713 291.988 C 266.663 291.846,262.335 289.934,260.669 288.876 C 259.984 288.442,258.691 287.646,257.796 287.109 C 256.900 286.572,255.351 285.390,254.353 284.481 C 253.355 283.573,252.436 282.826,252.311 282.821 C 251.720 282.799,246.384 275.638,244.924 272.908 C 230.105 245.206,254.004 211.092,284.766 216.039 " stroke="none" fill="#8c8c8c" fill-rule="evenodd"></path><path id="path2" d="M103.903 230.607 C 92.984 233.103,91.094 234.287,91.338 238.477 C 91.350 238.691,91.469 240.790,91.601 243.140 C 91.734 245.491,91.921 247.541,92.017 247.696 C 92.113 247.852,91.664 248.213,91.018 248.499 C 90.372 248.785,89.844 249.240,89.844 249.509 C 89.844 249.779,89.404 250.000,88.867 250.000 C 88.330 250.000,87.891 250.176,87.891 250.391 C 87.891 250.605,87.551 250.781,87.136 250.781 C 86.720 250.781,86.269 251.133,86.133 251.563 C 85.996 251.992,85.713 252.344,85.504 252.344 C 85.087 252.344,84.285 252.944,83.284 254.004 C 82.929 254.380,82.390 254.688,82.085 254.688 C 81.781 254.688,81.317 254.981,81.055 255.339 C 80.522 256.068,78.906 256.458,78.906 255.857 C 78.906 255.643,78.594 255.469,78.212 255.469 C 77.830 255.469,77.150 255.211,76.701 254.897 C 76.251 254.582,75.777 254.431,75.646 254.562 C 75.516 254.692,75.298 254.510,75.163 254.157 C 75.027 253.804,74.663 253.516,74.353 253.516 C 74.044 253.516,73.098 253.181,72.251 252.772 C 69.684 251.532,63.672 253.333,63.672 255.342 C 63.672 255.626,63.534 255.859,63.365 255.859 C 63.197 255.859,62.732 256.431,62.333 257.129 C 61.933 257.827,61.249 258.794,60.813 259.277 C 60.377 259.761,60.169 260.156,60.352 260.156 C 60.534 260.156,60.270 260.596,59.766 261.133 C 59.261 261.670,59.011 262.113,59.209 262.118 C 59.408 262.123,59.131 262.464,58.594 262.877 C 58.057 263.290,57.609 263.769,57.598 263.943 C 57.551 264.718,56.899 266.151,56.309 266.777 C 54.533 268.661,54.428 268.956,54.515 271.850 C 54.562 273.420,54.761 274.815,54.957 274.950 C 55.154 275.085,55.621 275.854,55.996 276.660 C 56.371 277.466,56.938 278.125,57.257 278.125 C 57.576 278.125,57.932 278.373,58.048 278.676 C 58.165 278.979,58.686 279.333,59.208 279.464 C 59.730 279.595,60.156 279.958,60.156 280.271 C 60.156 280.584,60.684 281.112,61.328 281.445 C 61.973 281.779,62.500 282.223,62.500 282.432 C 62.500 282.641,62.720 282.769,62.988 282.715 C 63.495 282.613,63.517 284.768,63.021 285.938 C 62.885 286.260,62.750 286.963,62.723 287.500 C 62.695 288.037,62.570 288.652,62.445 288.867 C 62.321 289.082,62.190 290.049,62.154 291.016 C 62.119 291.982,62.020 293.125,61.934 293.555 C 61.849 293.984,61.765 294.895,61.749 295.579 C 61.726 296.521,61.506 296.882,60.840 297.069 C 60.356 297.204,59.609 297.478,59.180 297.677 C 58.750 297.876,57.278 298.294,55.909 298.606 C 53.383 299.180,49.002 301.676,49.397 302.316 C 49.511 302.500,49.346 303.270,49.030 304.026 C 48.486 305.329,48.569 305.898,50.626 314.989 C 53.570 328.001,54.262 328.731,62.500 327.507 C 68.285 326.648,69.384 326.949,70.849 329.797 C 72.014 332.060,73.127 333.729,73.721 334.101 C 73.995 334.273,74.219 334.573,74.219 334.767 C 74.219 334.962,74.658 335.560,75.195 336.097 C 76.310 337.212,76.389 337.617,75.641 338.366 C 74.973 339.034,73.387 342.576,73.752 342.584 C 73.901 342.587,73.838 342.719,73.612 342.877 C 71.935 344.046,70.856 351.082,72.224 351.927 C 72.482 352.087,72.992 352.806,73.358 353.525 C 73.790 354.374,74.476 354.981,75.312 355.257 C 76.021 355.490,76.725 355.853,76.875 356.063 C 77.341 356.715,79.629 358.203,80.164 358.203 C 80.443 358.203,80.891 358.555,81.159 358.984 C 81.428 359.414,81.883 359.766,82.170 359.766 C 82.458 359.766,83.115 360.139,83.632 360.596 C 84.148 361.053,85.183 361.688,85.931 362.007 C 86.679 362.326,87.714 362.919,88.230 363.325 C 90.141 364.828,95.370 363.830,96.614 361.724 C 96.935 361.181,97.828 360.087,98.599 359.294 C 99.369 358.500,100.000 357.732,100.000 357.586 C 100.000 356.796,103.312 353.965,103.781 354.355 C 104.057 354.584,104.945 354.853,105.755 354.953 C 106.564 355.053,107.930 355.317,108.789 355.540 C 109.648 355.762,111.459 355.993,112.812 356.052 C 114.166 356.111,115.312 356.223,115.359 356.302 C 115.675 356.827,116.529 359.363,116.691 360.254 C 116.798 360.845,117.026 361.328,117.198 361.328 C 117.369 361.328,117.628 362.031,117.773 362.891 C 117.919 363.750,118.198 364.453,118.394 364.453 C 118.590 364.453,118.750 364.723,118.750 365.053 C 118.750 366.827,121.618 369.575,123.689 369.784 C 125.407 369.958,143.324 366.141,143.954 365.467 C 144.174 365.231,144.701 364.847,145.126 364.613 C 147.006 363.576,147.382 361.324,146.687 355.273 C 145.994 349.236,145.818 349.653,149.902 347.655 C 151.245 346.998,152.344 346.290,152.344 346.082 C 152.344 345.874,152.683 345.703,153.099 345.703 C 153.514 345.703,153.960 345.369,154.090 344.960 C 154.219 344.551,154.934 343.927,155.678 343.574 C 156.422 343.221,157.031 342.693,157.031 342.401 C 157.031 342.062,157.314 341.944,157.813 342.074 C 158.242 342.187,158.594 342.428,158.594 342.611 C 158.594 342.794,158.856 342.844,159.176 342.721 C 159.509 342.593,159.862 342.766,159.999 343.124 C 160.132 343.468,160.573 343.750,160.979 343.750 C 161.386 343.750,161.719 343.926,161.719 344.141 C 161.719 344.355,161.989 344.531,162.318 344.531 C 162.648 344.531,163.351 344.815,163.881 345.162 C 164.410 345.509,164.844 345.658,164.844 345.492 C 164.844 345.327,165.211 345.524,165.661 345.931 C 166.583 346.765,171.533 346.924,171.798 346.128 C 171.876 345.894,172.238 345.703,172.602 345.703 C 173.232 345.703,174.916 344.154,174.313 344.129 C 174.154 344.122,174.331 343.938,174.707 343.719 C 175.083 343.500,175.391 343.078,175.391 342.782 C 175.391 342.486,175.610 342.006,175.879 341.717 C 176.807 340.716,178.125 338.702,178.125 338.286 C 178.125 338.056,178.828 336.978,179.688 335.891 C 180.547 334.804,181.272 333.754,181.299 333.559 C 181.326 333.363,181.370 333.021,181.396 332.798 C 181.423 332.576,181.668 332.256,181.940 332.088 C 184.228 330.674,184.437 323.267,182.230 321.810 C 181.672 321.442,179.077 319.192,177.349 317.578 C 176.543 316.826,175.775 316.162,175.642 316.103 C 175.508 316.043,175.152 315.900,174.851 315.784 C 174.383 315.605,174.385 315.413,174.861 314.457 C 175.168 313.842,175.502 312.755,175.603 312.041 C 175.704 311.327,175.856 310.391,175.941 309.961 C 176.026 309.531,176.221 308.255,176.375 307.124 C 176.528 305.993,176.796 304.980,176.970 304.872 C 177.144 304.765,177.126 304.120,176.931 303.439 C 176.736 302.757,176.617 302.171,176.667 302.136 C 176.717 302.101,177.725 301.739,178.906 301.332 C 180.088 300.925,181.143 300.480,181.250 300.342 C 181.357 300.204,182.443 299.885,183.661 299.633 C 184.880 299.382,186.088 298.922,186.346 298.611 C 186.604 298.301,187.050 298.047,187.339 298.047 C 187.813 298.047,188.665 296.899,188.935 295.898 C 188.993 295.684,189.256 294.764,189.520 293.856 C 190.019 292.142,186.715 275.000,185.886 275.000 C 185.708 275.000,185.451 274.561,185.317 274.023 C 185.182 273.486,184.846 273.047,184.570 273.047 C 184.294 273.047,183.964 272.775,183.836 272.443 C 183.709 272.111,183.003 271.588,182.268 271.281 C 180.982 270.744,180.259 270.743,175.977 271.273 C 170.959 271.894,169.531 271.691,169.531 270.360 C 169.531 269.768,167.189 266.406,166.777 266.406 C 166.581 266.406,166.311 265.967,166.176 265.430 C 166.041 264.893,165.774 264.453,165.583 264.453 C 165.391 264.453,165.234 264.229,165.234 263.954 C 165.234 263.680,164.707 262.878,164.063 262.172 C 162.886 260.884,162.533 259.766,163.304 259.766 C 163.532 259.766,163.617 259.602,163.493 259.402 C 163.370 259.202,163.424 258.942,163.615 258.824 C 163.806 258.706,164.073 258.054,164.209 257.374 C 164.345 256.695,164.740 255.931,165.087 255.678 C 165.433 255.424,165.771 254.724,165.837 254.122 C 165.904 253.519,166.146 252.838,166.377 252.607 C 167.271 251.714,165.944 245.323,164.803 245.024 C 164.410 244.922,163.987 244.517,163.862 244.126 C 163.738 243.734,163.132 243.303,162.515 243.167 C 161.898 243.032,161.296 242.668,161.178 242.359 C 161.059 242.050,160.712 241.797,160.406 241.797 C 160.100 241.797,159.748 241.533,159.624 241.211 C 159.501 240.889,159.139 240.625,158.820 240.625 C 157.855 240.625,156.250 239.751,156.250 239.225 C 156.250 238.954,155.635 238.529,154.883 238.281 C 154.131 238.033,153.516 237.649,153.516 237.428 C 153.516 237.207,153.252 237.127,152.930 237.251 C 152.575 237.387,152.344 237.252,152.344 236.909 C 152.344 236.598,151.862 236.222,151.273 236.074 C 150.685 235.927,149.969 235.572,149.683 235.286 C 148.144 233.746,140.234 236.804,140.234 238.938 C 140.234 239.151,139.511 240.011,137.988 241.610 C 137.290 242.343,136.719 243.115,136.719 243.326 C 136.719 243.571,136.332 243.579,135.645 243.348 C 135.054 243.149,133.955 242.918,133.203 242.835 C 132.451 242.751,131.572 242.586,131.250 242.468 C 129.995 242.008,128.238 241.681,126.367 241.561 C 121.896 241.274,121.756 241.176,121.054 237.830 C 120.812 236.682,120.195 234.814,119.683 233.680 C 119.170 232.546,118.750 231.478,118.750 231.308 C 118.750 230.687,115.487 228.883,114.110 228.742 C 113.305 228.660,108.905 229.464,103.903 230.607 M128.079 269.000 C 137.603 271.760,147.788 281.522,149.419 289.453 C 149.573 290.205,149.857 291.016,150.050 291.256 C 151.568 293.148,151.314 303.506,149.614 308.984 C 141.279 335.846,104.681 339.467,91.090 314.775 C 77.592 290.251,101.085 261.177,128.079 269.000 " stroke="none" fill="#4c4c4c" fill-rule="evenodd"></path></g></svg>