<svg id="svg" version="1.1" xmlns="http://www.w3.org/2000/svg" xmlns:xlink="http://www.w3.org/1999/xlink" width="400" height="400" viewBox="0, 0, 400,400"><g id="svgg"><path id="path0" d="M89.453 51.557 C 88.916 51.735,86.749 52.429,84.638 53.099 C 72.378 56.990,64.533 64.776,60.040 77.509 L 58.789 81.055 58.789 200.000 L 58.789 318.945 60.040 322.491 C 62.988 330.848,66.520 335.832,73.520 341.518 C 76.858 344.229,84.968 347.555,90.383 348.434 C 93.665 348.967,306.335 348.967,309.617 348.434 C 324.127 346.079,334.883 336.889,339.951 322.518 L 341.211 318.945 341.311 209.668 L 341.412 100.391 317.386 100.391 L 293.359 100.391 293.359 75.781 L 293.359 51.172 191.895 51.203 C 136.089 51.220,89.990 51.379,89.453 51.557 M289.844 121.875 L 289.844 131.641 200.000 131.641 L 110.156 131.641 110.156 121.875 L 110.156 112.109 200.000 112.109 L 289.844 112.109 289.844 121.875 M289.844 160.938 L 289.844 170.703 200.000 170.703 L 110.156 170.703 110.156 160.938 L 110.156 151.172 200.000 151.172 L 289.844 151.172 289.844 160.938 M289.844 200.000 L 289.844 209.766 200.000 209.766 L 110.156 209.766 110.156 200.000 L 110.156 190.234 200.000 190.234 L 289.844 190.234 289.844 200.000 M289.844 239.063 L 289.844 248.828 200.000 248.828 L 110.156 248.828 110.156 239.063 L 110.156 229.297 200.000 229.297 L 289.844 229.297 289.844 239.063 M289.844 278.125 L 289.844 287.891 200.000 287.891 L 110.156 287.891 110.156 278.125 L 110.156 268.359 200.000 268.359 L 289.844 268.359 289.844 278.125 " stroke="none" fill="#fcecb4" fill-rule="evenodd"></path><path id="path1" d="M83.984 44.137 C 83.447 44.316,81.231 44.989,79.059 45.634 C 66.855 49.256,57.139 58.873,52.999 71.429 L 51.758 75.195 51.758 200.000 L 51.758 324.805 52.999 328.571 C 57.770 343.041,69.908 353.421,84.906 355.855 C 88.204 356.390,311.796 356.390,315.094 355.855 C 330.092 353.421,342.230 343.041,347.001 328.571 L 348.242 324.805 348.341 209.961 L 348.439 95.117 323.349 69.434 L 298.260 43.750 191.611 43.781 C 132.953 43.798,84.521 43.958,83.984 44.137 M293.359 75.781 L 293.359 100.391 317.386 100.391 L 341.412 100.391 341.311 209.668 L 341.211 318.945 339.951 322.518 C 334.883 336.889,324.127 346.079,309.617 348.434 C 306.335 348.967,93.665 348.967,90.383 348.434 C 75.891 346.082,65.112 336.865,60.040 322.491 L 58.789 318.945 58.789 200.000 L 58.789 81.055 60.040 77.509 C 62.545 70.409,64.681 66.935,69.431 62.235 C 74.465 57.254,77.735 55.290,84.638 53.099 C 86.749 52.429,88.916 51.735,89.453 51.557 C 89.990 51.379,136.089 51.220,191.895 51.203 L 293.359 51.172 293.359 75.781 M110.156 121.875 L 110.156 131.641 200.000 131.641 L 289.844 131.641 289.844 121.875 L 289.844 112.109 200.000 112.109 L 110.156 112.109 110.156 121.875 M110.156 160.938 L 110.156 170.703 200.000 170.703 L 289.844 170.703 289.844 160.938 L 289.844 151.172 200.000 151.172 L 110.156 151.172 110.156 160.938 M110.156 200.000 L 110.156 209.766 200.000 209.766 L 289.844 209.766 289.844 200.000 L 289.844 190.234 200.000 190.234 L 110.156 190.234 110.156 200.000 M110.156 239.063 L 110.156 248.828 200.000 248.828 L 289.844 248.828 289.844 239.063 L 289.844 229.297 200.000 229.297 L 110.156 229.297 110.156 239.063 M110.156 278.125 L 110.156 287.891 200.000 287.891 L 289.844 287.891 289.844 278.125 L 289.844 268.359 200.000 268.359 L 110.156 268.359 110.156 278.125 " stroke="none" fill="#e4bc74" fill-rule="evenodd"></path></g></svg>