<svg id="svg" version="1.1" xmlns="http://www.w3.org/2000/svg" xmlns:xlink="http://www.w3.org/1999/xlink" width="400" height="400" viewBox="0, 0, 400,400"><g id="svgg"><path id="path0" d="M73.828 198.047 C 73.080 198.795,73.047 199.349,73.047 211.094 L 73.047 223.361 71.943 224.083 C 66.195 227.843,61.328 240.793,61.328 252.328 L 61.328 253.516 67.188 253.516 L 73.047 253.516 73.047 257.813 L 73.047 262.109 53.320 262.109 C 34.115 262.109,33.573 262.130,32.813 262.891 C 32.065 263.638,32.031 264.193,32.031 275.690 L 32.031 287.707 30.141 288.379 C 14.405 293.968,19.112 318.107,35.938 318.107 C 52.763 318.107,57.470 293.968,41.734 288.379 L 39.844 287.707 39.844 278.815 L 39.844 269.922 76.953 269.922 L 114.063 269.922 114.063 278.815 L 114.063 287.707 112.172 288.379 C 96.436 293.968,101.143 318.107,117.969 318.107 C 134.795 318.107,139.501 293.968,123.765 288.379 L 121.875 287.707 121.875 275.690 C 121.875 264.193,121.841 263.638,121.094 262.891 C 120.333 262.130,119.792 262.109,100.586 262.109 L 80.859 262.109 80.859 257.813 L 80.859 253.516 86.719 253.516 L 92.578 253.516 92.578 252.328 C 92.578 240.793,87.711 227.843,81.963 224.083 L 80.859 223.361 80.859 214.219 L 80.859 205.078 91.797 205.078 C 104.679 205.078,104.297 205.198,104.297 201.172 C 104.297 197.062,105.112 197.266,88.672 197.266 C 75.130 197.266,74.580 197.295,73.828 198.047 M151.953 198.047 C 151.345 198.655,151.172 199.349,151.172 201.172 C 151.172 205.198,150.789 205.078,163.672 205.078 L 174.609 205.078 174.609 213.971 L 174.609 222.864 172.719 223.535 C 156.983 229.124,161.690 253.263,178.516 253.263 C 195.342 253.263,200.048 229.124,184.312 223.535 L 182.422 222.864 182.422 210.846 C 182.422 199.349,182.388 198.794,181.641 198.047 C 180.888 197.295,180.339 197.266,166.797 197.266 C 153.255 197.266,152.705 197.295,151.953 198.047 M237.500 236.328 C 236.752 237.076,236.719 237.630,236.719 249.376 L 236.719 261.642 235.615 262.364 C 230.537 265.686,226.608 274.647,225.413 285.629 C 224.881 290.519,224.887 291.619,225.439 290.235 C 226.312 288.044,229.403 285.976,233.398 284.907 C 236.993 283.945,236.719 283.328,236.719 292.383 L 236.719 300.391 216.992 300.391 C 197.786 300.391,197.245 300.411,196.484 301.172 C 195.737 301.919,195.703 302.474,195.703 313.971 L 195.703 325.989 193.813 326.660 C 178.077 332.249,182.783 356.388,199.609 356.388 C 216.435 356.388,221.142 332.249,205.406 326.660 L 203.516 325.989 203.516 317.096 L 203.516 308.203 240.625 308.203 L 277.734 308.203 277.734 317.096 L 277.734 325.989 275.844 326.660 C 266.643 329.928,263.145 342.622,269.301 350.402 C 275.742 358.541,287.539 358.541,293.980 350.402 C 300.136 342.622,296.638 329.928,287.437 326.660 L 285.547 325.989 285.547 313.971 C 285.547 302.474,285.513 301.919,284.766 301.172 C 284.005 300.411,283.464 300.391,264.258 300.391 L 244.531 300.391 244.531 292.383 C 244.531 283.328,244.257 283.945,247.852 284.907 C 251.847 285.976,254.938 288.044,255.811 290.235 C 256.363 291.619,256.369 290.519,255.837 285.629 C 254.642 274.647,250.713 265.686,245.635 262.364 L 244.531 261.642 244.531 252.501 L 244.531 243.359 255.469 243.359 C 268.351 243.359,267.969 243.479,267.969 239.453 C 267.969 235.343,268.784 235.547,252.344 235.547 C 238.802 235.547,238.252 235.576,237.500 236.328 M315.625 236.328 C 315.017 236.936,314.844 237.630,314.844 239.453 C 314.844 243.479,314.461 243.359,327.344 243.359 L 338.281 243.359 338.281 252.252 L 338.281 261.145 336.391 261.816 C 327.190 265.084,323.692 277.778,329.848 285.559 C 336.289 293.697,348.086 293.697,354.527 285.559 C 360.683 277.778,357.185 265.084,347.984 261.816 L 346.094 261.145 346.094 249.127 C 346.094 237.630,346.060 237.076,345.313 236.328 C 344.560 235.576,344.010 235.547,330.469 235.547 C 316.927 235.547,316.377 235.576,315.625 236.328 " stroke="none" fill="#2c9c44" fill-rule="evenodd"></path><path id="path1" d="M118.072 57.407 C 116.382 57.814,114.342 59.418,113.221 61.222 L 112.305 62.695 112.305 135.185 L 112.305 207.674 113.382 209.303 C 113.975 210.198,115.193 211.416,116.088 212.008 L 117.716 213.086 127.734 213.086 L 137.752 213.086 139.381 212.008 C 140.276 211.416,141.494 210.198,142.087 209.303 L 143.164 207.675 143.275 182.763 L 143.387 157.851 160.101 157.734 L 176.816 157.617 178.444 156.540 C 179.339 155.947,180.556 154.729,181.149 153.834 L 182.227 152.205 182.227 142.188 L 182.227 132.170 181.149 130.541 C 180.556 129.646,179.339 128.428,178.444 127.835 L 176.816 126.758 160.088 126.641 L 143.359 126.524 143.359 107.413 L 143.359 88.303 175.712 88.194 L 208.065 88.086 209.693 87.008 C 210.589 86.416,211.806 85.198,212.399 84.303 L 213.477 82.674 213.477 72.656 L 213.477 62.638 212.399 61.010 C 211.806 60.114,210.589 58.897,209.693 58.304 L 208.065 57.227 163.701 57.165 C 139.300 57.131,118.767 57.240,118.072 57.407 M246.587 95.689 C 241.634 96.881,240.820 99.036,240.820 110.966 L 240.820 120.955 241.898 122.584 C 242.491 123.479,243.708 124.697,244.603 125.290 L 246.230 126.367 261.000 126.486 L 275.769 126.606 275.873 186.281 L 275.977 245.956 277.054 247.584 C 277.647 248.479,278.864 249.697,279.760 250.290 L 281.388 251.367 291.406 251.367 L 301.424 251.367 303.053 250.290 C 303.948 249.697,305.166 248.479,305.758 247.584 L 306.836 245.956 306.940 186.281 L 307.043 126.606 321.813 126.486 L 336.582 126.367 338.210 125.290 C 339.105 124.697,340.322 123.479,340.915 122.584 L 341.992 120.955 341.992 110.938 L 341.992 100.920 340.915 99.291 C 340.322 98.396,339.104 97.178,338.209 96.585 L 336.581 95.508 292.216 95.446 C 267.816 95.412,247.283 95.521,246.587 95.689 " stroke="none" fill="#247c3c" fill-rule="evenodd"></path></g></svg>