<svg id="svg" version="1.1" xmlns="http://www.w3.org/2000/svg" xmlns:xlink="http://www.w3.org/1999/xlink" width="400" height="400" viewBox="0, 0, 400,400"><g id="svgg"><path id="path0" d="M182.323 83.227 C 178.016 84.270,174.134 87.507,172.138 91.718 L 170.898 94.336 170.898 112.109 L 170.898 129.883 172.138 132.500 C 173.716 135.830,176.279 138.393,179.609 139.971 L 182.227 141.211 200.000 141.211 L 217.773 141.211 220.391 139.971 C 223.721 138.393,226.284 135.830,227.862 132.500 L 229.102 129.883 229.102 112.109 L 229.102 94.336 227.862 91.718 C 226.284 88.388,223.721 85.825,220.391 84.248 L 217.773 83.008 200.781 82.940 C 191.436 82.902,183.129 83.032,182.323 83.227 M182.323 161.352 C 178.104 162.374,174.080 165.748,172.102 169.921 L 170.898 172.461 170.898 239.063 L 170.898 305.664 172.102 308.204 C 173.644 311.458,176.432 314.246,179.686 315.788 L 182.227 316.992 200.000 316.992 L 217.773 316.992 220.314 315.788 C 223.568 314.246,226.356 311.458,227.898 308.204 L 229.102 305.664 229.102 239.063 L 229.102 172.461 227.898 169.921 C 226.356 166.667,223.568 163.879,220.314 162.337 L 217.773 161.133 200.781 161.065 C 191.436 161.027,183.129 161.157,182.323 161.352 " stroke="none" fill="#f4f4f4" fill-rule="evenodd"></path><path id="path1" d="M188.086 44.194 C 84.446 53.120,17.830 156.935,53.519 253.906 C 87.334 345.788,197.058 384.268,280.683 333.572 C 359.527 285.773,380.151 180.972,325.278 106.956 C 293.670 64.320,239.917 39.730,188.086 44.194 M220.391 84.248 C 223.721 85.825,226.284 88.388,227.862 91.718 L 229.102 94.336 229.102 112.109 L 229.102 129.883 227.862 132.500 C 226.284 135.830,223.721 138.393,220.391 139.971 L 217.773 141.211 200.000 141.211 L 182.227 141.211 179.609 139.971 C 176.279 138.393,173.716 135.830,172.138 132.500 L 170.898 129.883 170.898 112.109 L 170.898 94.336 172.138 91.718 C 174.134 87.507,178.016 84.270,182.323 83.227 C 183.129 83.032,191.436 82.902,200.781 82.940 L 217.773 83.008 220.391 84.248 M220.314 162.337 C 223.568 163.879,226.356 166.667,227.898 169.921 L 229.102 172.461 229.102 239.063 L 229.102 305.664 227.898 308.204 C 226.356 311.458,223.568 314.246,220.314 315.788 L 217.773 316.992 200.000 316.992 L 182.227 316.992 179.686 315.788 C 176.432 314.246,173.644 311.458,172.102 308.204 L 170.898 305.664 170.898 239.063 L 170.898 172.461 172.102 169.921 C 174.080 165.748,178.104 162.374,182.323 161.352 C 183.129 161.157,191.436 161.027,200.781 161.065 L 217.773 161.133 220.314 162.337 " stroke="none" fill="#1c5ca4" fill-rule="evenodd"></path></g></svg>